<svg width="166" height="167" viewBox="0 0 166 167" fill="none" xmlns="http://www.w3.org/2000/svg">
<path d="M124.344 35.833H101.437C98.028 35.833 95.2697 38.5981 95.2697 42.0002V64.093C95.2697 64.751 94.7377 65.283 94.0796 65.283H71.6141V42.0002C71.6141 38.5911 68.8489 35.833 65.4465 35.833H42.54C39.1376 35.833 36.3723 38.5981 36.3723 42.0002V64.905C36.3723 68.3141 39.1376 71.0722 42.54 71.0722H65.8175V94.726H42.54C39.1306 94.726 36.3723 97.4911 36.3723 100.893V123.798C36.3723 127.207 39.1376 129.965 42.54 129.965H65.4465C68.8559 129.965 71.6141 127.2 71.6141 123.798V100.522H94.0796C94.7377 100.522 95.2697 101.054 95.2697 101.712V123.805C95.2697 127.214 98.035 129.972 101.437 129.972H124.344C127.753 129.972 130.512 127.207 130.512 123.805V42.0002C130.512 38.5911 127.746 35.833 124.344 35.833ZM65.8245 122.244C65.8245 123.308 64.9634 124.169 63.8993 124.169H44.1012C43.037 124.169 42.1759 123.308 42.1759 122.244V102.447C42.1759 101.383 43.037 100.522 44.1012 100.522H65.8245V122.244ZM65.8245 65.276H44.1012C43.037 65.276 42.1759 64.415 42.1759 63.351V43.5613C42.1759 42.4972 43.037 41.6362 44.1012 41.6362H63.8993C64.9634 41.6362 65.8245 42.4972 65.8245 43.5613V65.283V65.276ZM124.722 122.244C124.722 123.308 123.861 124.169 122.797 124.169H102.999C101.934 124.169 101.073 123.308 101.073 122.244V100.893C101.073 97.4841 98.3081 94.726 94.9057 94.726H71.6282V71.0722H94.9057C98.3151 71.0722 101.073 68.3071 101.073 64.905V43.5613C101.073 42.4972 101.934 41.6362 102.999 41.6362H122.797C123.861 41.6362 124.722 42.4972 124.722 43.5613V122.251V122.244Z" fill="#294E3B"/>
</svg>
